# xmcd CD database file
#
# Track frame offsets:
#	150
#	14919
#	28655
#	44301
#	58647
#	69047
#	87128
#	101415
#	117112
#	139166
#	157275
#	175976
#
# Disc length: 2510 seconds
#
# Revision: 0
# Processed by: cddbd v1.5.1PL0 Copyright (c) Steve Scherf et al.
# Submitted via: CDex 1.51
#
DISCID=9f09cc0c
DTITLE=The Numbers Racket - Jump In
DYEAR=2004
DGENRE=Jazz
TTITLE0=Go Daddy - O
TTITLE1=Buckle Up
TTITLE2=Ding Dong Daddy
TTITLE3=Gee I Wish
TTITLE4=Take It Like A Man
TTITLE5=Mississippi Saxophone
TTITLE6=Pick Up The Phone
TTITLE7=You, Me and a Bottle
TTITLE8=Keep it Up
TTITLE9=Night Out
TTITLE10=Comin' Back Home
TTITLE11=Mr Zoot Suit
EXTD=YEAR: 2004
EXTT0=
EXTT1=
EXTT2=
EXTT3=
EXTT4=
EXTT5=
EXTT6=
EXTT7=
EXTT8=
EXTT9=
EXTT10=
EXTT11=
PLAYORDER=
